<svg xmlns="http://www.w3.org/2000/svg" width="144" viewBox="0 0 144 144" height="144" version="1.0"><defs><clipPath id="a"><path d="M 44 22.761719 L 99 22.761719 L 99 80 L 44 80 Z M 44 22.761719"/></clipPath><clipPath id="b"><path d="M 30.347656 46 L 113.597656 46 L 113.597656 85.011719 L 30.347656 85.011719 Z M 30.347656 46"/></clipPath></defs><g clip-path="url(#a)"><path fill="#FFF" d="M 97.484375 44.4375 C 97.089844 44.1875 96.691406 44.238281 96.242188 44.210938 C 95.117188 44.117188 94.054688 43.925781 92.929688 43.90625 C 88.269531 43.820312 83.601562 43.929688 78.941406 43.890625 C 73.550781 43.847656 68.171875 44.144531 62.773438 44.207031 C 58.324219 44.261719 53.839844 44.0625 49.425781 43.78125 C 46.496094 43.597656 43.160156 45.816406 44.359375 48.929688 C 44.753906 49.980469 45.453125 51.316406 46.542969 51.898438 C 47.195312 52.210938 47.878906 52.386719 48.597656 52.429688 C 48.796875 55.710938 49.992188 58.785156 51.210938 61.851562 C 52.316406 64.621094 53.472656 67.175781 55.507812 69.5 C 56.320312 70.4375 57.21875 71.285156 58.207031 72.042969 C 56.960938 72.695312 55.660156 73.179688 55.566406 74.726562 C 55.484375 76.015625 56.535156 76.804688 57.667969 77.363281 C 59.5625 78.300781 61.632812 78.75 63.761719 78.910156 C 66.554688 79.125 69.371094 79.363281 72.191406 79.363281 C 74.777344 79.378906 77.347656 78.832031 79.886719 78.425781 C 82.246094 78.050781 85.007812 77.851562 86.988281 76.488281 C 89.390625 74.839844 88.449219 71.660156 85.761719 71.019531 C 86.675781 70.28125 87.507812 69.460938 88.261719 68.558594 C 90.363281 66.023438 91.234375 63.277344 92.039062 60.230469 C 92.894531 56.96875 94.027344 53.753906 94.878906 50.511719 C 94.894531 50.453125 94.894531 50.394531 94.878906 50.339844 C 96.5625 49.914062 98.039062 49.152344 98.226562 47.351562 C 98.332031 46.457031 98.449219 45.046875 97.484375 44.4375 Z M 90.207031 22.859375 C 88.511719 23.210938 87.3125 24.398438 87.007812 25.96875 C 86.855469 26.761719 87.136719 27.339844 87.207031 28.089844 C 87.304688 29.183594 86.253906 29.691406 85.464844 30.425781 C 83.289062 32.445312 81.0625 34.429688 79.074219 36.617188 C 78.210938 37.570312 77.410156 38.609375 76.625 39.613281 C 76.25 40.097656 74.949219 41.628906 75.203125 42.269531 C 75.457031 42.90625 77.230469 42.699219 77.929688 42.726562 C 80.027344 42.820312 82.113281 42.769531 84.210938 42.667969 C 86.25 42.570312 86.808594 41.785156 87.839844 40.183594 C 89.304688 37.894531 89.984375 35.554688 90.605469 32.992188 C 90.738281 32.347656 90.933594 31.71875 91.191406 31.109375 C 91.546875 30.367188 91.820312 30.214844 92.582031 29.894531 C 93.296875 29.589844 93.914062 29.34375 94.441406 28.773438 C 96.992188 25.988281 93.839844 22.101562 90.207031 22.859375 Z M 90.207031 22.859375"/></g><path d="M 83.382812 55.511719 C 81.835938 54.464844 79.582031 54.054688 77.664062 53.785156 C 77.652344 53.660156 77.585938 53.578125 77.464844 53.539062 C 76.394531 53.097656 75.285156 52.800781 74.132812 52.648438 C 76.730469 52.097656 79.257812 50.535156 80.375 48.398438 C 80.402344 48.335938 80.414062 48.269531 80.40625 48.199219 C 80.398438 48.128906 80.375 48.066406 80.335938 48.007812 C 80.292969 47.953125 80.242188 47.910156 80.175781 47.878906 C 80.113281 47.847656 80.046875 47.835938 79.976562 47.84375 C 79.929688 47.652344 79.804688 47.550781 79.609375 47.53125 C 76.429688 47.152344 73.304688 48.730469 72.769531 51.707031 C 72.570312 51.882812 72.371094 52.050781 72.171875 52.226562 C 72.097656 52.296875 72.066406 52.382812 72.074219 52.484375 C 70.984375 52.464844 69.898438 52.523438 68.816406 52.660156 C 69.398438 52.277344 69.898438 51.808594 70.316406 51.257812 C 70.773438 50.652344 72.03125 48.832031 71.15625 48.171875 C 70.40625 47.605469 68.011719 49.199219 67.425781 49.578125 C 65.914062 50.554688 65.011719 51.746094 64.671875 53.398438 C 64.652344 53.488281 64.667969 53.574219 64.71875 53.652344 C 63.820312 54.007812 62.953125 54.425781 62.074219 54.847656 C 61.046875 55.34375 59.40625 55.914062 58.886719 56.945312 C 58.667969 57.375 59.363281 57.75 59.582031 57.316406 C 60.050781 56.398438 61.882812 55.777344 62.796875 55.339844 C 63.566406 54.96875 64.332031 54.609375 65.121094 54.304688 C 65.21875 54.5 65.144531 54.839844 65.191406 55.058594 C 65.265625 55.394531 65.390625 55.710938 65.558594 56.011719 C 65.914062 56.601562 66.355469 57.109375 66.894531 57.542969 C 67.515625 58.089844 68.511719 59.4375 69.375 58.496094 C 70.273438 57.507812 70.109375 56.050781 69.335938 55.078125 C 68.753906 54.351562 67.6875 53.945312 66.675781 53.800781 C 66.964844 53.722656 67.257812 53.644531 67.566406 53.582031 C 68.9375 53.332031 70.324219 53.207031 71.71875 53.207031 C 71.34375 53.996094 71.566406 55.171875 71.8125 55.890625 C 72.082031 56.660156 73.320312 59.109375 74.453125 59.054688 C 75.523438 59.011719 75.292969 56.886719 75.226562 56.332031 C 75.082031 55.121094 74.546875 54.117188 73.625 53.316406 C 74.617188 53.425781 75.585938 53.648438 76.53125 53.980469 C 76.542969 54.046875 76.578125 54.097656 76.632812 54.136719 C 76.640625 54.320312 76.738281 54.414062 76.921875 54.417969 C 76.957031 54.417969 76.992188 54.429688 77.027344 54.433594 C 77.3125 54.878906 77.683594 55.871094 77.863281 56.101562 C 78.417969 56.816406 79.230469 57.242188 80.097656 57.574219 C 80.925781 57.890625 84.472656 59.355469 85.105469 58.367188 C 85.636719 57.546875 84.003906 55.9375 83.382812 55.511719 Z M 67.3125 50.582031 C 67.523438 50.421875 69.375 49.230469 70.195312 48.929688 C 69.402344 49.671875 68.558594 50.347656 67.703125 51.054688 C 67.078125 51.574219 66.449219 52.199219 65.742188 52.664062 C 66.0625 51.820312 66.585938 51.125 67.3125 50.582031 Z M 68.503906 55.320312 C 68.773438 55.550781 68.964844 55.835938 69.078125 56.171875 C 69.191406 56.511719 69.210938 56.851562 69.136719 57.199219 C 69.136719 57.199219 69.136719 57.210938 69.136719 57.214844 C 68.886719 56.636719 68.34375 56.15625 67.964844 55.65625 C 67.691406 55.292969 67.386719 54.957031 67.054688 54.644531 C 67.59375 54.753906 68.078125 54.976562 68.507812 55.320312 Z M 67.25 56.027344 C 67.613281 56.488281 68.394531 57.152344 68.445312 57.722656 C 68.472656 57.921875 68.585938 58.039062 68.789062 58.0625 C 68.789062 58.125 68.789062 58.089844 68.609375 58 C 68.234375 57.820312 67.878906 57.390625 67.574219 57.128906 C 67.179688 56.808594 66.820312 56.453125 66.503906 56.058594 C 66.222656 55.679688 66.039062 55.257812 65.957031 54.796875 C 66.460938 55.132812 66.894531 55.542969 67.253906 56.027344 Z M 66.871094 52.785156 C 67.285156 52.453125 67.667969 52.089844 68.0625 51.769531 C 68.804688 51.140625 69.558594 50.542969 70.285156 49.910156 C 70.179688 50.097656 70.085938 50.261719 70.039062 50.328125 C 69.695312 50.894531 69.261719 51.386719 68.738281 51.792969 C 68.179688 52.242188 67.558594 52.574219 66.871094 52.785156 Z M 74.265625 55.664062 C 74.328125 55.859375 74.757812 57.964844 74.335938 58.199219 C 74.050781 58.363281 71.578125 54.714844 72.4375 53.46875 C 73.351562 53.894531 73.980469 54.785156 74.265625 55.664062 Z M 78.28125 48.234375 C 76.660156 48.789062 75.214844 49.71875 73.894531 50.769531 C 74.648438 49.214844 76.40625 48.355469 78.28125 48.234375 Z M 79.214844 48.738281 C 77.996094 50.398438 75.820312 51.605469 73.628906 51.984375 C 75.257812 50.589844 77.074219 49.300781 79.21875 48.738281 Z M 83.449219 57.757812 C 81.917969 57.5 79.71875 57.007812 78.660156 55.867188 C 78.417969 55.605469 78.242188 55.074219 78.027344 54.597656 C 79.238281 54.78125 80.421875 55.070312 81.582031 55.46875 C 82.390625 55.765625 83.171875 56.160156 83.675781 56.832031 C 83.832031 57.039062 84.089844 57.34375 84.128906 57.605469 C 84.1875 58.007812 84.125 57.871094 83.449219 57.757812 Z M 83.449219 57.757812"/><path d="M 76.84375 65.957031 C 72.472656 64.097656 68.496094 61.242188 63.625 60.492188 C 62.941406 60.386719 56.632812 60.042969 56.726562 61.714844 C 56.65625 61.816406 56.648438 61.921875 56.703125 62.03125 C 57.265625 62.929688 58.648438 63.644531 59.5625 64.195312 C 61.453125 65.332031 63.328125 66.597656 65.390625 67.46875 C 67.203125 68.214844 69.089844 68.53125 71.050781 68.414062 C 73.148438 68.253906 74.804688 66.957031 76.816406 66.597656 C 77.1875 66.523438 77.144531 66.085938 76.84375 65.957031 Z M 60.574219 63.976562 C 59.765625 63.492188 58.476562 62.902344 57.730469 62.179688 C 58.871094 62.144531 60.011719 62.210938 61.144531 62.375 C 61.097656 62.839844 61.148438 63.296875 61.292969 63.738281 C 61.386719 64.019531 61.453125 64.296875 61.535156 64.570312 C 61.214844 64.375 60.898438 64.175781 60.574219 63.984375 Z M 62.457031 65.125 C 62.472656 65.054688 62.464844 64.988281 62.429688 64.925781 C 62.203125 64.492188 62.132812 64.054688 61.992188 63.597656 C 61.875 63.234375 61.832031 62.863281 61.859375 62.480469 C 62.21875 62.542969 62.582031 62.609375 62.925781 62.679688 C 63.238281 62.75 63.535156 62.839844 63.832031 62.933594 C 63.71875 64.046875 64.066406 65.273438 64.574219 66.320312 C 63.847656 65.964844 63.148438 65.554688 62.457031 65.132812 Z M 65.679688 66.84375 L 65.613281 66.8125 C 65.605469 66.773438 65.59375 66.734375 65.574219 66.699219 C 64.980469 65.683594 64.488281 64.390625 64.539062 63.191406 C 65.175781 63.441406 65.785156 63.734375 66.402344 64.035156 C 66.394531 64.046875 66.390625 64.058594 66.386719 64.074219 C 66.300781 64.726562 66.53125 65.636719 66.734375 66.265625 C 66.867188 66.667969 67.058594 67.042969 67.304688 67.386719 C 66.75 67.246094 66.210938 67.066406 65.679688 66.851562 Z M 68.285156 67.566406 C 67.875 67.082031 67.570312 66.539062 67.378906 65.9375 C 67.226562 65.425781 67.132812 64.90625 67.097656 64.378906 C 67.460938 64.554688 67.824219 64.726562 68.199219 64.890625 C 68.570312 65.054688 68.992188 65.234375 69.421875 65.398438 C 69.371094 65.464844 69.351562 65.539062 69.363281 65.621094 C 69.425781 66.171875 69.574219 66.699219 69.8125 67.203125 C 69.902344 67.375 69.972656 67.5625 70.070312 67.738281 C 69.476562 67.742188 68.886719 67.695312 68.300781 67.601562 C 68.296875 67.59375 68.292969 67.582031 68.285156 67.570312 Z M 72.648438 67.378906 C 72.085938 67.542969 71.507812 67.648438 70.921875 67.691406 C 70.886719 67.648438 70.839844 67.617188 70.789062 67.597656 C 70.734375 67.574219 70.65625 67.3125 70.625 67.25 C 70.535156 67.070312 70.441406 66.898438 70.363281 66.714844 C 70.214844 66.371094 70.125 66.015625 70.089844 65.644531 C 71.546875 66.199219 73.054688 66.519531 74.613281 66.605469 C 73.972656 66.898438 73.316406 67.160156 72.648438 67.386719 Z M 65.378906 62.769531 C 63.191406 61.734375 60.273438 61.398438 57.757812 61.503906 C 58.667969 61.191406 61.285156 60.964844 61.300781 60.964844 C 63.246094 60.941406 65.164062 61.402344 66.96875 62.046875 C 69.867188 63.085938 72.492188 64.660156 75.25 65.960938 C 71.691406 66.128906 68.410156 64.210938 65.378906 62.777344 Z M 65.378906 62.769531"/><path d="M 87.765625 62.019531 C 85.5 60.949219 83.113281 60.328125 80.609375 60.15625 C 78.925781 60.074219 75.910156 60.15625 74.589844 61.230469 C 74.507812 61.289062 74.46875 61.367188 74.464844 61.46875 C 74.382812 61.597656 74.378906 61.726562 74.449219 61.863281 C 74.828125 62.5625 75.960938 62.898438 76.671875 63.230469 C 77.992188 63.839844 79.285156 64.316406 80.765625 64.496094 C 83.109375 64.785156 86.164062 64.25 87.835938 62.609375 C 87.882812 62.570312 87.917969 62.523438 87.9375 62.464844 C 87.960938 62.410156 87.96875 62.351562 87.960938 62.292969 C 87.953125 62.234375 87.933594 62.179688 87.898438 62.132812 C 87.863281 62.082031 87.820312 62.046875 87.765625 62.019531 Z M 80.835938 63.730469 C 79.523438 63.550781 78.273438 63.164062 77.089844 62.582031 C 76.605469 62.359375 75.695312 62.09375 75.300781 61.667969 C 76.652344 60.71875 79.851562 60.8125 81.320312 60.980469 C 83.230469 61.214844 85.074219 61.695312 86.851562 62.421875 C 85.265625 63.609375 82.722656 63.960938 80.835938 63.730469 Z M 80.835938 63.730469"/><path d="M 84.140625 50.996094 C 84.039062 50.996094 83.949219 51.03125 83.878906 51.101562 C 83.804688 51.175781 83.769531 51.261719 83.769531 51.363281 C 83.769531 51.46875 83.804688 51.554688 83.878906 51.625 C 83.949219 51.699219 84.039062 51.734375 84.140625 51.734375 C 84.242188 51.734375 84.332031 51.699219 84.402344 51.625 C 84.476562 51.554688 84.511719 51.46875 84.511719 51.363281 C 84.511719 51.261719 84.476562 51.175781 84.402344 51.101562 C 84.332031 51.03125 84.242188 50.996094 84.140625 50.996094 Z M 84.140625 50.996094"/><path d="M 88.285156 51.5625 C 88.175781 51.554688 88.082031 51.585938 88.003906 51.660156 C 87.921875 51.734375 87.882812 51.824219 87.882812 51.933594 C 87.882812 52.039062 87.921875 52.128906 88.003906 52.203125 C 88.082031 52.277344 88.175781 52.3125 88.285156 52.304688 C 88.394531 52.3125 88.488281 52.277344 88.566406 52.203125 C 88.644531 52.128906 88.6875 52.039062 88.6875 51.933594 C 88.6875 51.824219 88.644531 51.734375 88.566406 51.660156 C 88.488281 51.585938 88.394531 51.554688 88.285156 51.5625 Z M 88.285156 51.5625"/><path d="M 88.433594 54.585938 C 88.394531 54.457031 88.328125 54.34375 88.234375 54.25 C 88.140625 54.152344 88.03125 54.082031 87.902344 54.039062 C 87.777344 53.996094 87.648438 53.984375 87.515625 54.003906 C 87.382812 54.023438 87.261719 54.070312 87.148438 54.144531 C 86.695312 54.445312 86.515625 55 87.023438 55.332031 C 87.085938 55.375 87.15625 55.394531 87.234375 55.394531 C 87.292969 55.417969 87.359375 55.4375 87.433594 55.453125 C 87.726562 55.535156 87.96875 55.5625 88.226562 55.355469 C 88.476562 55.144531 88.546875 54.890625 88.433594 54.585938 Z M 88.433594 54.585938"/><path d="M 90.96875 53.179688 C 90.867188 52.851562 90.539062 52.839844 90.226562 52.859375 C 89.761719 52.886719 89.714844 53.484375 90.085938 53.582031 C 90.160156 53.695312 90.265625 53.753906 90.402344 53.757812 C 90.757812 53.789062 91.078125 53.519531 90.96875 53.179688 Z M 90.96875 53.179688"/><path d="M 80.085938 65.820312 C 79.898438 65.828125 79.777344 65.917969 79.71875 66.09375 C 79.617188 66.273438 79.617188 66.449219 79.722656 66.628906 C 79.824219 66.804688 79.980469 66.890625 80.1875 66.886719 C 80.535156 66.914062 80.875 66.667969 80.824219 66.328125 C 80.777344 66.167969 80.683594 66.039062 80.542969 65.945312 C 80.40625 65.851562 80.253906 65.808594 80.085938 65.820312 Z M 80.085938 65.820312"/><path d="M 84.339844 67.554688 C 84.191406 67.042969 83.636719 66.867188 83.109375 66.820312 C 83.03125 66.738281 82.933594 66.707031 82.824219 66.714844 C 82.066406 66.746094 81.480469 67.507812 81.746094 68.175781 C 81.988281 68.78125 82.84375 69.292969 83.546875 69.132812 C 84.25 68.972656 84.515625 68.160156 84.339844 67.554688 Z M 83.480469 68.34375 C 83.269531 68.5625 82.851562 68.308594 82.683594 68.164062 C 82.519531 68.015625 82.441406 67.894531 82.523438 67.703125 C 82.550781 67.632812 82.59375 67.574219 82.65625 67.527344 C 82.679688 67.535156 82.707031 67.539062 82.730469 67.542969 C 82.945312 67.542969 83.304688 67.527344 83.480469 67.667969 C 83.65625 67.804688 83.625 68.195312 83.480469 68.335938 Z M 83.480469 68.34375"/><path d="M 79.996094 68.378906 C 79.628906 68.066406 79.171875 68.191406 78.746094 68.265625 C 78.320312 68.339844 78.402344 68.828125 78.726562 68.953125 C 78.738281 69.234375 78.878906 69.421875 79.148438 69.507812 C 79.480469 69.628906 79.917969 69.582031 80.117188 69.285156 C 80.210938 69.136719 80.246094 68.980469 80.222656 68.808594 C 80.199219 68.636719 80.125 68.492188 79.996094 68.378906 Z M 79.996094 68.378906"/><path d="M 63.246094 57.636719 C 63.144531 57.636719 63.054688 57.675781 62.984375 57.746094 C 62.910156 57.820312 62.875 57.90625 62.875 58.007812 C 62.875 58.109375 62.910156 58.199219 62.984375 58.269531 C 63.054688 58.34375 63.144531 58.378906 63.246094 58.378906 C 63.347656 58.378906 63.4375 58.34375 63.507812 58.269531 C 63.582031 58.199219 63.617188 58.109375 63.617188 58.007812 C 63.617188 57.90625 63.582031 57.820312 63.507812 57.746094 C 63.4375 57.675781 63.347656 57.636719 63.246094 57.636719 Z M 63.246094 57.636719"/><path d="M 62.804688 51.15625 C 62.695312 51.148438 62.601562 51.183594 62.523438 51.253906 C 62.445312 51.328125 62.402344 51.421875 62.402344 51.527344 C 62.402344 51.636719 62.445312 51.726562 62.523438 51.800781 C 62.601562 51.875 62.695312 51.90625 62.804688 51.898438 C 62.914062 51.90625 63.007812 51.875 63.085938 51.800781 C 63.167969 51.726562 63.207031 51.636719 63.207031 51.527344 C 63.207031 51.421875 63.167969 51.328125 63.085938 51.253906 C 63.007812 51.183594 62.914062 51.148438 62.804688 51.15625 Z M 62.804688 51.15625"/><path d="M 59.8125 53.300781 C 59.371094 52.929688 58.59375 53.246094 58.617188 53.796875 C 58.628906 53.925781 58.691406 54.023438 58.800781 54.09375 C 58.910156 54.164062 59.027344 54.179688 59.152344 54.132812 C 59.398438 54.222656 59.628906 54.183594 59.835938 54.023438 C 59.949219 53.929688 60.003906 53.804688 60 53.65625 C 59.996094 53.507812 59.933594 53.390625 59.8125 53.300781 Z M 59.8125 53.300781"/><g clip-path="url(#b)"><path fill="#BA942E" d="M 113.304688 60.695312 C 113.296875 60.566406 113.238281 60.464844 113.132812 60.394531 C 113.03125 60.320312 112.914062 60.300781 112.792969 60.339844 C 110.648438 60.820312 108.273438 62.257812 106.710938 63.679688 C 106.40625 63.957031 106.121094 64.253906 105.847656 64.566406 C 106.046875 63.75 106.234375 62.933594 106.398438 62.109375 C 106.707031 61.605469 106.929688 61 107.183594 60.601562 C 108.117188 59.15625 109.277344 57.332031 110.742188 56.304688 C 112.082031 56.59375 113.894531 55.757812 112.566406 54.425781 C 111.945312 53.800781 110.679688 53.769531 110.03125 54.386719 C 109.507812 54.882812 109.699219 55.332031 110 55.828125 C 110.003906 55.859375 110.011719 55.894531 110.03125 55.921875 C 109.109375 56.664062 108.371094 57.65625 107.6875 58.5625 C 107.390625 58.957031 107.089844 59.351562 106.8125 59.75 C 106.878906 59.300781 106.9375 58.855469 106.988281 58.402344 C 107.140625 56.882812 107.175781 55.359375 107.101562 53.835938 C 107.171875 53.804688 107.230469 53.761719 107.273438 53.695312 C 108.628906 51.625 108.964844 48.15625 106.5625 46.535156 C 106.492188 46.417969 106.394531 46.347656 106.261719 46.324219 C 106.128906 46.296875 106.007812 46.324219 105.902344 46.40625 C 103.621094 48.1875 104.363281 51.710938 106.296875 53.488281 C 106.386719 54.898438 106.371094 56.308594 106.257812 57.71875 C 106.238281 57.917969 106.21875 58.089844 106.195312 58.277344 C 105.71875 56.792969 105.066406 55.394531 104.234375 54.074219 C 104.625 53.738281 104.753906 53.222656 104.070312 52.84375 C 102.332031 51.855469 101.921875 55.246094 103.65625 54.625 C 104.5 56.035156 105.285156 57.679688 105.644531 59.320312 C 105.570312 59.097656 105.484375 58.882812 105.375 58.675781 C 104.972656 57.941406 104.441406 57.3125 103.785156 56.789062 C 103.4375 56.503906 101.421875 55.160156 101.152344 55.679688 C 100.375 57.164062 100.621094 59.316406 101.246094 60.855469 C 101.617188 61.761719 102.242188 62.429688 103.125 62.863281 C 103.789062 63.207031 104.554688 62.953125 105.144531 63.234375 C 105.210938 63.261719 105.277344 63.277344 105.34375 63.273438 C 105.078125 64.441406 104.777344 65.601562 104.4375 66.769531 C 104.179688 67.363281 103.992188 67.976562 103.871094 68.613281 C 103.347656 70.273438 102.710938 71.886719 101.96875 73.460938 C 102.027344 70.851562 100.886719 68.101562 98.699219 66.578125 C 98.601562 66.503906 98.496094 66.488281 98.378906 66.527344 C 98.265625 66.566406 98.191406 66.644531 98.15625 66.761719 C 98.074219 66.78125 98.003906 66.824219 97.949219 66.894531 C 96.90625 68.234375 97.238281 70.835938 97.660156 72.316406 C 98.03125 73.621094 99.199219 75.335938 100.480469 76.179688 C 100.195312 76.632812 99.898438 77.082031 99.582031 77.523438 C 98.652344 78.757812 97.5625 79.835938 96.3125 80.75 C 96.433594 80.398438 96.496094 80.035156 96.496094 79.664062 C 96.496094 79.117188 96.484375 78.519531 96.214844 78.023438 C 96.359375 77.886719 96.472656 77.730469 96.550781 77.546875 C 96.710938 77.175781 96.632812 76.40625 96.152344 76.214844 C 96.078125 76.113281 95.980469 76.054688 95.855469 76.042969 C 95.472656 76 95.078125 75.9375 94.722656 76.105469 C 94.40625 76.25 94.175781 76.480469 94.023438 76.792969 C 93.949219 76.949219 93.910156 77.117188 93.90625 77.292969 C 93.90625 77.46875 93.945312 77.636719 94.019531 77.796875 C 94.097656 77.953125 94.203125 78.089844 94.339844 78.199219 C 94.480469 78.308594 94.632812 78.382812 94.804688 78.421875 C 95.046875 78.480469 95.285156 78.476562 95.523438 78.410156 C 95.96875 79.261719 95.582031 80.386719 95.304688 81.210938 C 95.269531 81.300781 95.277344 81.386719 95.324219 81.46875 C 93.980469 82.417969 92.566406 83.296875 91.191406 84.265625 C 91.039062 84.316406 90.945312 84.421875 90.921875 84.582031 C 90.921875 84.601562 90.921875 84.621094 90.921875 84.640625 C 90.875 85 91.375 85.070312 91.613281 84.898438 C 93.769531 83.355469 96.035156 82.066406 97.964844 80.386719 C 101.710938 82.136719 109.890625 82.085938 110.289062 76.984375 C 110.300781 76.859375 110.253906 76.765625 110.148438 76.695312 C 110.09375 76.597656 110.007812 76.542969 109.894531 76.53125 C 107.863281 76.269531 105.867188 76.425781 103.902344 76.996094 C 102.238281 77.472656 100.832031 78.246094 99.367188 79 C 99.613281 78.722656 99.859375 78.441406 100.085938 78.136719 C 100.523438 77.542969 100.933594 76.933594 101.320312 76.308594 C 101.363281 76.265625 101.394531 76.21875 101.417969 76.164062 C 101.628906 75.804688 101.816406 75.460938 102.011719 75.117188 C 103.230469 74.066406 104.808594 73.554688 106.425781 73.308594 C 107.054688 73.851562 107.789062 74.207031 108.699219 73.703125 C 109.535156 73.238281 109.601562 72.121094 108.664062 71.703125 C 107.671875 71.257812 107.074219 71.902344 106.425781 72.347656 C 106.234375 72.328125 106.097656 72.40625 106.015625 72.578125 C 106.003906 72.578125 105.996094 72.589844 105.984375 72.59375 C 104.824219 73.066406 103.738281 73.273438 102.710938 73.769531 C 103.320312 72.511719 103.847656 71.226562 104.300781 69.90625 C 106.792969 70.417969 109.867188 69.171875 111.640625 67.605469 C 112.730469 66.648438 113.183594 65.574219 113.484375 64.230469 C 113.746094 63.019531 113.3125 61.925781 113.304688 60.695312 Z M 107.027344 52.460938 C 106.925781 50.855469 106.78125 49.253906 106.695312 47.636719 C 107.84375 48.914062 107.699219 50.929688 107.027344 52.460938 Z M 98.429688 72.125 C 98.136719 71.1875 97.933594 69.398438 98.265625 68.152344 C 98.5 69.128906 98.894531 70.097656 99.109375 71.070312 C 99.273438 71.828125 99.402344 72.601562 99.632812 73.34375 C 99.804688 73.894531 100.101562 74.472656 100.28125 75.050781 C 99.4375 74.21875 98.820312 73.242188 98.429688 72.125 Z M 95.792969 76.988281 C 95.847656 77.144531 95.824219 77.289062 95.722656 77.417969 C 95.640625 77.542969 95.53125 77.632812 95.394531 77.6875 C 95.253906 77.738281 95.113281 77.746094 94.972656 77.707031 C 94.597656 77.570312 94.691406 77.113281 94.921875 76.890625 C 95.121094 76.710938 95.375 76.730469 95.628906 76.761719 C 95.683594 76.835938 95.757812 76.878906 95.847656 76.894531 C 95.683594 76.867188 95.753906 76.832031 95.792969 76.988281 Z M 101.5 80.582031 C 102.390625 80.488281 103.265625 80.304688 104.121094 80.027344 C 105.074219 79.707031 106.011719 79.277344 106.925781 78.878906 C 107.734375 78.53125 108.515625 77.871094 109.359375 77.585938 C 108.636719 80.394531 104.734375 81 101.5 80.582031 Z M 108.386719 77.164062 C 107.359375 77.625 106.363281 78.304688 105.335938 78.730469 C 104.015625 79.277344 102.761719 79.675781 101.3125 79.773438 C 101.171875 79.785156 99.90625 79.820312 99.347656 79.890625 C 102.273438 78.476562 105.007812 77.054688 108.386719 77.160156 Z M 107.167969 72.976562 C 107.140625 72.960938 107.117188 72.929688 107.089844 72.914062 C 107.53125 72.304688 108.960938 74.058594 107.167969 72.976562 Z M 102.132812 60.871094 C 101.546875 59.785156 101.273438 58.007812 101.621094 56.703125 C 101.71875 58.5625 102.6875 61.167969 104.433594 62.453125 C 103.941406 62.394531 103.492188 62.226562 103.085938 61.949219 C 102.679688 61.667969 102.359375 61.308594 102.132812 60.871094 Z M 102.441406 56.804688 C 103.605469 57.421875 104.421875 58.347656 104.894531 59.574219 C 105.117188 60.21875 105.144531 60.90625 105.238281 61.5625 C 105.261719 61.726562 105.3125 61.941406 105.34375 62.15625 C 103.570312 61.21875 102.570312 58.539062 102.441406 56.804688 Z M 111.472656 66.699219 C 110.660156 67.660156 109.191406 68.4375 107.957031 68.824219 C 108.023438 68.800781 105.09375 69.367188 104.753906 69.390625 C 106.566406 68.804688 108.167969 67.859375 109.554688 66.5625 C 111.117188 65.140625 111.882812 63.71875 112.660156 62.011719 C 112.738281 62.390625 112.785156 62.777344 112.792969 63.164062 C 112.761719 64.492188 112.320312 65.671875 111.472656 66.699219 Z M 52.734375 84.277344 C 51.367188 83.304688 49.949219 82.429688 48.601562 81.480469 C 48.648438 81.398438 48.65625 81.3125 48.625 81.222656 C 48.351562 80.398438 47.960938 79.269531 48.40625 78.421875 C 48.640625 78.488281 48.878906 78.492188 49.121094 78.433594 C 49.292969 78.394531 49.449219 78.320312 49.585938 78.210938 C 49.722656 78.097656 49.828125 77.964844 49.90625 77.804688 C 49.980469 77.648438 50.019531 77.480469 50.019531 77.304688 C 50.019531 77.128906 49.980469 76.960938 49.902344 76.800781 C 49.75 76.488281 49.519531 76.261719 49.203125 76.113281 C 48.847656 75.949219 48.449219 76.011719 48.074219 76.054688 C 47.945312 76.066406 47.847656 76.121094 47.773438 76.222656 C 47.300781 76.421875 47.222656 77.1875 47.375 77.558594 C 47.453125 77.738281 47.566406 77.898438 47.710938 78.035156 C 47.441406 78.535156 47.433594 79.128906 47.429688 79.671875 C 47.429688 80.046875 47.492188 80.410156 47.617188 80.761719 C 46.367188 79.84375 45.28125 78.765625 44.351562 77.53125 C 44.035156 77.089844 43.738281 76.640625 43.453125 76.183594 C 44.738281 75.34375 45.90625 73.625 46.28125 72.324219 C 46.703125 70.84375 47.035156 68.242188 45.992188 66.902344 C 45.941406 66.835938 45.875 66.792969 45.792969 66.769531 C 45.761719 66.652344 45.6875 66.574219 45.570312 66.535156 C 45.453125 66.496094 45.347656 66.511719 45.25 66.585938 C 43.0625 68.109375 41.917969 70.859375 41.984375 73.464844 C 41.238281 71.894531 40.605469 70.277344 40.082031 68.621094 C 39.957031 67.984375 39.769531 67.371094 39.511719 66.777344 C 39.167969 65.609375 38.875 64.445312 38.605469 63.28125 C 38.675781 63.285156 38.742188 63.269531 38.804688 63.242188 C 39.402344 62.960938 40.15625 63.210938 40.820312 62.871094 C 41.695312 62.4375 42.316406 61.769531 42.683594 60.867188 C 43.308594 59.328125 43.558594 57.175781 42.78125 55.691406 C 42.507812 55.171875 40.488281 56.519531 40.144531 56.800781 C 39.488281 57.328125 38.960938 57.953125 38.554688 58.6875 C 38.449219 58.894531 38.363281 59.109375 38.292969 59.332031 C 38.652344 57.691406 39.4375 56.054688 40.277344 54.640625 C 42.007812 55.253906 41.597656 51.871094 39.859375 52.84375 C 39.175781 53.226562 39.308594 53.742188 39.695312 54.074219 C 38.863281 55.394531 38.210938 56.792969 37.734375 58.277344 C 37.714844 58.089844 37.6875 57.90625 37.671875 57.722656 C 37.558594 56.3125 37.542969 54.898438 37.628906 53.488281 C 39.570312 51.707031 40.316406 48.195312 38.027344 46.40625 C 37.917969 46.324219 37.800781 46.296875 37.667969 46.324219 C 37.535156 46.351562 37.433594 46.421875 37.367188 46.539062 C 34.960938 48.164062 35.300781 51.621094 36.65625 53.699219 C 36.699219 53.761719 36.753906 53.808594 36.828125 53.835938 C 36.75 55.363281 36.785156 56.890625 36.9375 58.414062 C 36.988281 58.867188 37.046875 59.3125 37.109375 59.757812 C 36.832031 59.359375 36.535156 58.964844 36.238281 58.570312 C 35.550781 57.664062 34.816406 56.667969 33.894531 55.929688 C 33.910156 55.898438 33.921875 55.867188 33.925781 55.835938 C 34.230469 55.339844 34.414062 54.886719 33.894531 54.394531 C 33.242188 53.78125 31.980469 53.800781 31.359375 54.433594 C 30.03125 55.765625 31.84375 56.609375 33.183594 56.316406 C 34.648438 57.339844 35.8125 59.164062 36.738281 60.609375 C 36.996094 61.007812 37.21875 61.613281 37.535156 62.113281 C 37.699219 62.9375 37.878906 63.753906 38.085938 64.574219 C 37.816406 64.261719 37.527344 63.964844 37.222656 63.6875 C 35.660156 62.261719 33.285156 60.824219 31.140625 60.347656 C 31.019531 60.308594 30.90625 60.328125 30.800781 60.402344 C 30.695312 60.472656 30.636719 60.574219 30.632812 60.703125 C 30.632812 61.933594 30.191406 63.023438 30.46875 64.265625 C 30.769531 65.605469 31.222656 66.675781 32.308594 67.640625 C 34.085938 69.207031 37.164062 70.453125 39.652344 69.941406 C 40.101562 71.261719 40.632812 72.546875 41.242188 73.800781 C 40.214844 73.304688 39.128906 73.09375 37.96875 72.625 C 37.957031 72.625 37.949219 72.617188 37.9375 72.613281 C 37.855469 72.441406 37.722656 72.363281 37.535156 72.375 C 36.886719 71.9375 36.285156 71.289062 35.292969 71.730469 C 34.355469 72.152344 34.421875 73.269531 35.261719 73.730469 C 36.167969 74.230469 36.898438 73.871094 37.53125 73.335938 C 39.148438 73.589844 40.726562 74.097656 41.945312 75.144531 C 42.132812 75.492188 42.320312 75.835938 42.53125 76.191406 C 42.554688 76.246094 42.589844 76.296875 42.628906 76.335938 C 43.027344 76.960938 43.425781 77.578125 43.863281 78.164062 C 44.089844 78.46875 44.335938 78.757812 44.585938 79.03125 C 43.121094 78.273438 41.714844 77.5 40.046875 77.027344 C 38.082031 76.453125 36.085938 76.300781 34.054688 76.5625 C 33.941406 76.570312 33.855469 76.625 33.800781 76.726562 C 33.691406 76.792969 33.644531 76.886719 33.664062 77.015625 C 34.058594 82.113281 42.242188 82.160156 45.984375 80.414062 C 47.910156 82.101562 50.179688 83.382812 52.347656 84.929688 C 52.585938 85.097656 53.078125 85.027344 53.035156 84.667969 C 53.035156 84.648438 53.035156 84.632812 53.035156 84.613281 C 53.003906 84.441406 52.902344 84.332031 52.734375 84.277344 Z M 44.300781 73.34375 C 44.53125 72.601562 44.660156 71.828125 44.828125 71.070312 C 45.042969 70.101562 45.421875 69.132812 45.671875 68.152344 C 46.003906 69.398438 45.796875 71.183594 45.503906 72.125 C 45.117188 73.242188 44.5 74.21875 43.652344 75.046875 C 43.828125 74.46875 44.132812 73.894531 44.300781 73.34375 Z M 36.90625 52.460938 C 36.246094 50.929688 36.089844 48.910156 37.238281 47.636719 C 37.152344 49.257812 37.007812 50.867188 36.90625 52.460938 Z M 41.792969 60.871094 C 41.566406 61.308594 41.25 61.667969 40.839844 61.949219 C 40.433594 62.230469 39.984375 62.398438 39.492188 62.457031 C 41.238281 61.167969 42.210938 58.566406 42.304688 56.707031 C 42.652344 58.011719 42.378906 59.785156 41.792969 60.871094 Z M 38.695312 61.554688 C 38.789062 60.898438 38.820312 60.207031 39.042969 59.5625 C 39.511719 58.335938 40.328125 57.410156 41.496094 56.792969 C 41.363281 58.53125 40.363281 61.210938 38.59375 62.136719 C 38.621094 61.9375 38.671875 61.714844 38.695312 61.554688 Z M 35.964844 68.828125 C 34.734375 68.433594 33.261719 67.664062 32.449219 66.703125 C 31.601562 65.675781 31.164062 64.496094 31.132812 63.167969 C 31.140625 62.777344 31.183594 62.394531 31.261719 62.015625 C 32.042969 63.722656 32.808594 65.144531 34.367188 66.566406 C 35.757812 67.863281 37.359375 68.804688 39.167969 69.394531 C 38.828125 69.371094 35.902344 68.804688 35.964844 68.828125 Z M 36.757812 72.984375 C 34.96875 74.066406 36.394531 72.3125 36.835938 72.917969 C 36.820312 72.929688 36.792969 72.960938 36.765625 72.976562 Z M 34.585938 77.582031 C 35.425781 77.867188 36.207031 78.523438 37.015625 78.875 C 37.929688 79.269531 38.871094 79.703125 39.824219 80.023438 C 40.675781 80.300781 41.546875 80.484375 42.4375 80.578125 C 39.203125 81 35.292969 80.394531 34.585938 77.582031 Z M 42.617188 79.761719 C 41.167969 79.660156 39.910156 79.261719 38.597656 78.71875 C 37.566406 78.292969 36.574219 77.613281 35.542969 77.148438 C 38.921875 77.046875 41.660156 78.464844 44.582031 79.878906 C 44.027344 79.820312 42.757812 79.777344 42.617188 79.773438 Z M 48.085938 76.890625 C 48.179688 76.871094 48.25 76.828125 48.308594 76.753906 C 48.558594 76.722656 48.8125 76.703125 49.011719 76.886719 C 49.246094 77.097656 49.335938 77.566406 48.964844 77.699219 C 48.820312 77.738281 48.679688 77.734375 48.539062 77.679688 C 48.402344 77.625 48.292969 77.535156 48.210938 77.410156 C 48.109375 77.28125 48.085938 77.140625 48.140625 76.984375 C 48.183594 76.832031 48.25 76.867188 48.085938 76.902344 Z M 48.085938 76.890625"/></g><g fill="#FFF"><g><g><path d="M 2.429688 -9.175781 C 2.179688 -8.316406 1.972656 -7.441406 1.828125 -6.554688 C 1.539062 -4.855469 1.460938 -3.160156 1.710938 -1.449219 C 1.789062 -0.914062 1.90625 -0.378906 2.152344 0.117188 C 2.324219 0.46875 2.585938 0.742188 2.976562 0.847656 C 3.746094 1.082031 4.492188 0.914062 4.988281 0.234375 C 5.234375 -0.0898438 5.445312 -0.46875 5.625 -0.835938 C 6.214844 -2.011719 6.554688 -3.277344 6.894531 -4.53125 C 6.972656 -4.816406 6.894531 -4.882812 6.605469 -4.894531 C 6.488281 -4.894531 6.421875 -4.855469 6.382812 -4.753906 C 6.359375 -4.632812 6.320312 -4.515625 6.292969 -4.386719 C 5.980469 -3.277344 5.640625 -2.167969 5.105469 -1.136719 C 4.910156 -0.757812 4.699219 -0.378906 4.425781 -0.0390625 C 4.296875 0.117188 4.136719 0.273438 3.957031 0.367188 C 3.746094 0.484375 3.667969 0.457031 3.589844 0.234375 C 3.5 -0.0273438 3.472656 -0.3125 3.433594 -0.601562 C 3.328125 -1.5 3.394531 -2.414062 3.460938 -3.328125 C 3.589844 -5.234375 3.890625 -7.140625 3.996094 -9.058594 C 4.019531 -9.347656 4.035156 -9.359375 4.296875 -9.308594 C 5.15625 -9.113281 6.019531 -9.296875 6.878906 -9.320312 C 7.140625 -9.335938 7.167969 -9.398438 7.152344 -9.6875 C 7.128906 -9.921875 7.113281 -9.933594 6.839844 -9.949219 C 6.789062 -9.949219 6.722656 -9.949219 6.65625 -9.949219 C 5.679688 -9.882812 4.710938 -9.960938 3.773438 -10.261719 C 3.5625 -10.328125 3.34375 -10.367188 3.132812 -10.40625 C 1.710938 -10.652344 0.351562 -10.429688 -0.914062 -9.765625 C -1.5 -9.453125 -1.5 -9.398438 -1.109375 -8.878906 C -0.941406 -8.65625 -0.925781 -8.640625 -0.691406 -8.773438 C 0.0273438 -9.136719 0.796875 -9.308594 1.578125 -9.425781 C 1.867188 -9.464844 2.179688 -9.53125 2.480469 -9.476562 C 2.519531 -9.359375 2.453125 -9.269531 2.429688 -9.175781 Z M 2.429688 -9.175781" transform="translate(51.267 102.208)"/></g></g></g><g fill="#FFF"><g><g><path d="M 1.617188 -4.035156 C 1.695312 -5.117188 1.789062 -6.1875 1.855469 -7.273438 C 1.917969 -8.226562 1.984375 -9.191406 2.023438 -10.144531 C 2.050781 -10.640625 2.035156 -10.652344 1.527344 -10.640625 C 0.769531 -10.640625 0.757812 -10.640625 0.613281 -9.894531 C 0.3125 -8.445312 0.105469 -6.984375 0 -5.507812 C -0.105469 -4.203125 -0.117188 -2.898438 0.0273438 -1.605469 C 0.078125 -1.1875 0.144531 -0.769531 0.246094 -0.367188 C 0.3125 -0.117188 0.484375 0 0.730469 0.0117188 C 0.835938 0.0117188 0.953125 0.0117188 1.058594 0 C 1.253906 -0.0117188 1.371094 -0.105469 1.382812 -0.328125 C 1.4375 -0.730469 1.515625 -1.121094 1.605469 -1.515625 C 1.917969 -2.910156 2.519531 -4.164062 3.289062 -5.351562 C 3.394531 -5.496094 3.5 -5.703125 3.707031 -5.664062 C 3.941406 -5.601562 3.863281 -5.367188 3.878906 -5.183594 C 3.890625 -4.085938 3.902344 -3.003906 3.929688 -1.90625 C 3.929688 -1.488281 3.957031 -1.070312 4.007812 -0.652344 C 4.074219 -0.289062 4.152344 0.078125 4.320312 0.40625 C 4.425781 0.601562 4.554688 0.757812 4.777344 0.808594 C 5.25 0.902344 5.679688 0.835938 6.019531 0.445312 C 6.265625 0.144531 6.449219 -0.183594 6.617188 -0.535156 C 7.074219 -1.515625 7.429688 -2.546875 7.808594 -3.550781 C 7.925781 -3.863281 7.910156 -3.863281 7.597656 -3.957031 C 7.375 -4.007812 7.3125 -3.917969 7.246094 -3.746094 C 6.933594 -3.003906 6.617188 -2.273438 6.304688 -1.539062 C 6.109375 -1.058594 5.914062 -0.585938 5.640625 -0.144531 C 5.535156 0.0390625 5.445312 0.222656 5.25 0.339844 C 5.128906 0.183594 5.105469 0.0117188 5.066406 -0.15625 C 4.972656 -0.664062 4.921875 -1.1875 4.921875 -1.695312 C 4.921875 -2.585938 4.921875 -3.472656 4.921875 -4.359375 C 4.921875 -4.804688 4.882812 -5.25 4.738281 -5.664062 C 4.570312 -6.214844 4.085938 -6.449219 3.539062 -6.28125 C 3.289062 -6.199219 3.082031 -6.042969 2.898438 -5.863281 C 2.625 -5.585938 2.402344 -5.273438 2.207031 -4.949219 C 2.023438 -4.648438 1.855469 -4.335938 1.671875 -4.035156 C 1.65625 -4.035156 1.632812 -4.035156 1.617188 -4.035156 Z M 1.617188 -4.035156" transform="translate(57.494 102.208)"/></g></g></g><g fill="#FFF"><g><g><path d="M 5.46875 -3.785156 C 5.261719 -3.929688 5.15625 -3.929688 5.027344 -3.773438 C 4.894531 -3.617188 4.792969 -3.460938 4.671875 -3.304688 C 4.125 -2.53125 3.550781 -1.777344 2.9375 -1.058594 C 2.832031 -0.925781 2.726562 -0.808594 2.585938 -0.71875 C 2.390625 -0.585938 2.230469 -0.601562 2.0625 -0.785156 C 1.957031 -0.902344 1.867188 -1.042969 1.828125 -1.1875 C 1.605469 -1.894531 1.4375 -2.609375 1.410156 -3.355469 C 1.410156 -3.539062 1.460938 -3.617188 1.644531 -3.667969 C 2.664062 -3.96875 3.222656 -4.660156 3.382812 -5.691406 C 3.460938 -6.265625 3.289062 -6.75 2.808594 -7.089844 C 2.335938 -7.414062 1.828125 -7.351562 1.34375 -7.074219 C 0.914062 -6.816406 0.601562 -6.4375 0.367188 -5.992188 C -0.0273438 -5.234375 -0.183594 -4.425781 -0.222656 -3.578125 C -0.234375 -3.304688 -0.195312 -3.042969 -0.144531 -2.769531 C -0.0273438 -2.035156 0.234375 -1.359375 0.71875 -0.769531 C 1.320312 -0.0390625 2.820312 0.195312 3.5625 -0.808594 C 4.214844 -1.683594 4.855469 -2.570312 5.46875 -3.484375 C 5.535156 -3.578125 5.625 -3.679688 5.46875 -3.785156 Z M 1.632812 -5.390625 C 1.710938 -5.71875 1.828125 -6.042969 1.957031 -6.359375 C 1.996094 -6.460938 2.0625 -6.578125 2.191406 -6.566406 C 2.3125 -6.554688 2.363281 -6.449219 2.414062 -6.34375 C 2.414062 -6.320312 2.429688 -6.292969 2.429688 -6.265625 C 2.648438 -5.585938 2.246094 -4.503906 1.632812 -4.136719 C 1.578125 -4.097656 1.515625 -4.074219 1.421875 -4.097656 C 1.421875 -4.53125 1.527344 -4.960938 1.632812 -5.390625 Z M 1.632812 -5.390625" transform="translate(64.44 102.208)"/></g></g></g><g fill="#FFF"><g><g><path d="M 3.09375 -3.121094 C 3.105469 -2.53125 3.171875 -1.945312 3.265625 -1.359375 C 3.382812 -0.523438 3.5625 0.289062 3.878906 1.070312 C 3.980469 1.304688 4.085938 1.539062 4.257812 1.734375 C 4.660156 2.207031 5.457031 2.140625 5.769531 1.617188 C 5.941406 1.34375 6.058594 1.042969 6.136719 0.742188 C 6.476562 -0.496094 6.789062 -1.734375 7.101562 -2.976562 C 7.140625 -3.121094 7.167969 -3.238281 6.972656 -3.289062 C 6.722656 -3.34375 6.617188 -3.304688 6.554688 -3.121094 C 6.539062 -3.054688 6.527344 -3.003906 6.5 -2.9375 C 6.175781 -1.722656 5.835938 -0.523438 5.496094 0.691406 C 5.445312 0.875 5.378906 1.070312 5.273438 1.238281 C 5.261719 1.28125 5.222656 1.332031 5.167969 1.320312 C 5.089844 1.320312 5.078125 1.253906 5.066406 1.199219 C 4.972656 0.875 4.933594 0.546875 4.933594 0.207031 C 4.921875 -0.3125 4.933594 -0.847656 4.921875 -1.371094 C 4.855469 -3.917969 5.011719 -6.449219 5.183594 -8.96875 C 5.195312 -9.230469 5.195312 -9.492188 5.195312 -9.753906 C 5.195312 -9.894531 5.128906 -9.972656 4.972656 -9.972656 C 4.699219 -9.960938 4.425781 -9.960938 4.164062 -9.960938 C 3.996094 -9.960938 3.917969 -9.871094 3.863281 -9.726562 C 3.785156 -9.464844 3.695312 -9.21875 3.628906 -8.941406 C 3.433594 -8.144531 3.328125 -7.324219 3.210938 -6.515625 C 3.160156 -6.160156 3.144531 -6.175781 2.792969 -6.148438 C 1.789062 -6.070312 0.953125 -5.652344 0.390625 -4.777344 C 0.128906 -4.375 -0.0507812 -3.929688 -0.144531 -3.445312 C -0.246094 -2.871094 -0.289062 -2.296875 -0.0664062 -1.734375 C 0.15625 -1.136719 0.640625 -0.925781 1.226562 -0.875 C 1.777344 -0.835938 2.101562 -1.121094 2.335938 -1.578125 C 2.558594 -2.023438 2.714844 -2.480469 2.898438 -2.9375 C 2.9375 -3.054688 2.964844 -3.171875 3.042969 -3.265625 C 3.105469 -3.222656 3.09375 -3.171875 3.09375 -3.121094 Z M 1.082031 -1.777344 C 0.941406 -2.792969 1.058594 -3.785156 1.605469 -4.6875 C 1.878906 -5.144531 2.246094 -5.484375 2.78125 -5.625 C 2.808594 -5.625 2.847656 -5.640625 2.886719 -5.640625 C 2.910156 -5.640625 2.9375 -5.625 2.964844 -5.625 C 3.015625 -5.535156 2.949219 -5.46875 2.925781 -5.390625 C 2.480469 -4.296875 2.023438 -3.210938 1.617188 -2.101562 C 1.527344 -1.867188 1.4375 -1.632812 1.238281 -1.449219 C 1.109375 -1.527344 1.097656 -1.65625 1.082031 -1.777344 Z M 1.082031 -1.777344" transform="translate(73.46 102.208)"/></g></g></g><g fill="#FFF"><g><g><path d="M 3.839844 -3.8125 C 3.617188 -3.890625 3.589844 -3.890625 3.460938 -3.65625 C 3.445312 -3.617188 3.421875 -3.5625 3.394531 -3.523438 C 2.964844 -2.675781 2.53125 -1.839844 2.101562 -0.992188 C 2.023438 -0.835938 1.945312 -0.691406 1.855469 -0.546875 C 1.722656 -0.351562 1.605469 -0.367188 1.488281 -0.5625 C 1.382812 -0.757812 1.320312 -0.980469 1.28125 -1.1875 C 1.1875 -1.75 1.1875 -2.324219 1.160156 -2.886719 C 1.121094 -3.917969 1.226562 -4.949219 1.304688 -5.980469 C 1.34375 -6.488281 1.332031 -6.5 0.796875 -6.515625 C 0.769531 -6.515625 0.730469 -6.515625 0.691406 -6.515625 C 0.5625 -6.527344 0.484375 -6.476562 0.445312 -6.34375 C 0.40625 -6.242188 0.351562 -6.148438 0.328125 -6.03125 C 0.078125 -5.066406 -0.078125 -4.085938 -0.078125 -3.015625 C -0.0898438 -2.519531 -0.0507812 -1.957031 0.078125 -1.398438 C 0.167969 -1.042969 0.289062 -0.71875 0.507812 -0.429688 C 1.058594 0.273438 2.191406 0.207031 2.636719 -0.5625 C 2.753906 -0.769531 2.859375 -1.003906 2.949219 -1.226562 C 3.277344 -1.972656 3.601562 -2.714844 3.929688 -3.460938 C 3.980469 -3.601562 4.046875 -3.734375 3.839844 -3.8125 Z M 1.082031 -7.207031 C 1.4375 -7.21875 1.644531 -7.414062 1.644531 -7.742188 C 1.644531 -8.054688 1.421875 -8.25 1.042969 -8.238281 C 0.757812 -8.238281 0.523438 -7.964844 0.535156 -7.648438 C 0.535156 -7.351562 0.71875 -7.207031 1.082031 -7.207031 Z M 1.082031 -7.207031" transform="translate(80.235 102.208)"/></g></g></g><g fill="#FFF"><g><g><path d="M 5.46875 -3.785156 C 5.261719 -3.929688 5.15625 -3.929688 5.027344 -3.773438 C 4.894531 -3.617188 4.792969 -3.460938 4.671875 -3.304688 C 4.125 -2.53125 3.550781 -1.777344 2.9375 -1.058594 C 2.832031 -0.925781 2.726562 -0.808594 2.585938 -0.71875 C 2.390625 -0.585938 2.230469 -0.601562 2.0625 -0.785156 C 1.957031 -0.902344 1.867188 -1.042969 1.828125 -1.1875 C 1.605469 -1.894531 1.4375 -2.609375 1.410156 -3.355469 C 1.410156 -3.539062 1.460938 -3.617188 1.644531 -3.667969 C 2.664062 -3.96875 3.222656 -4.660156 3.382812 -5.691406 C 3.460938 -6.265625 3.289062 -6.75 2.808594 -7.089844 C 2.335938 -7.414062 1.828125 -7.351562 1.34375 -7.074219 C 0.914062 -6.816406 0.601562 -6.4375 0.367188 -5.992188 C -0.0273438 -5.234375 -0.183594 -4.425781 -0.222656 -3.578125 C -0.234375 -3.304688 -0.195312 -3.042969 -0.144531 -2.769531 C -0.0273438 -2.035156 0.234375 -1.359375 0.71875 -0.769531 C 1.320312 -0.0390625 2.820312 0.195312 3.5625 -0.808594 C 4.214844 -1.683594 4.855469 -2.570312 5.46875 -3.484375 C 5.535156 -3.578125 5.625 -3.679688 5.46875 -3.785156 Z M 1.632812 -5.390625 C 1.710938 -5.71875 1.828125 -6.042969 1.957031 -6.359375 C 1.996094 -6.460938 2.0625 -6.578125 2.191406 -6.566406 C 2.3125 -6.554688 2.363281 -6.449219 2.414062 -6.34375 C 2.414062 -6.320312 2.429688 -6.292969 2.429688 -6.265625 C 2.648438 -5.585938 2.246094 -4.503906 1.632812 -4.136719 C 1.578125 -4.097656 1.515625 -4.074219 1.421875 -4.097656 C 1.421875 -4.53125 1.527344 -4.960938 1.632812 -5.390625 Z M 1.632812 -5.390625" transform="translate(83.72 102.208)"/></g></g></g><g fill="#FFF"><g><g><path d="M 0.078125 -1.554688 C 0.195312 -0.875 0.378906 -0.207031 0.703125 0.40625 C 0.863281 0.679688 1.058594 0.914062 1.371094 1.019531 C 2.167969 1.265625 2.910156 1.136719 3.394531 0.417969 C 3.472656 0.3125 3.539062 0.207031 3.589844 0.105469 C 4.152344 -0.941406 4.398438 -2.089844 4.726562 -3.210938 C 4.738281 -3.277344 4.765625 -3.34375 4.710938 -3.382812 C 4.582031 -3.484375 4.425781 -3.539062 4.269531 -3.523438 C 4.125 -3.511719 4.113281 -3.382812 4.074219 -3.277344 C 3.902344 -2.78125 3.746094 -2.285156 3.5625 -1.789062 C 3.316406 -1.136719 3.121094 -0.46875 2.753906 0.117188 C 2.675781 0.246094 2.597656 0.367188 2.507812 0.484375 C 2.230469 0.769531 2.0625 0.742188 1.894531 0.390625 C 1.839844 0.289062 1.800781 0.167969 1.761719 0.0507812 C 1.632812 -0.546875 1.515625 -1.136719 1.515625 -1.734375 C 1.488281 -2.792969 1.5 -3.851562 1.578125 -4.910156 C 1.632812 -5.863281 1.683594 -6.800781 1.800781 -7.742188 C 1.839844 -8.121094 1.839844 -8.121094 2.21875 -8.144531 C 3.238281 -8.199219 4.257812 -8.25 5.273438 -8.316406 C 5.378906 -8.316406 5.496094 -8.34375 5.601562 -8.355469 C 5.691406 -8.367188 5.71875 -8.421875 5.730469 -8.5 C 5.769531 -8.773438 5.71875 -8.863281 5.429688 -8.878906 C 5.117188 -8.890625 4.792969 -8.890625 4.476562 -8.902344 C 3.734375 -8.917969 3.003906 -8.839844 2.257812 -8.839844 C 1.90625 -8.824219 1.90625 -8.839844 1.933594 -9.175781 C 1.945312 -9.398438 1.957031 -9.621094 1.957031 -9.84375 C 1.957031 -10.117188 1.933594 -10.144531 1.671875 -10.15625 C 1.4375 -10.167969 1.199219 -10.15625 0.964844 -10.167969 C 0.769531 -10.167969 0.679688 -10.089844 0.613281 -9.921875 C 0.496094 -9.609375 0.390625 -9.28125 0.339844 -8.957031 C 0.300781 -8.773438 0.207031 -8.695312 0.0117188 -8.679688 C -0.3125 -8.65625 -0.640625 -8.601562 -0.964844 -8.550781 C -1.199219 -8.523438 -1.238281 -8.460938 -1.238281 -8.25 C -1.238281 -8.015625 -1.070312 -8.027344 -0.925781 -8.027344 C -0.679688 -8.015625 -0.445312 -8.015625 -0.195312 -8.027344 C 0.144531 -8.027344 0.144531 -8.027344 0.105469 -7.703125 C -0.0273438 -6.722656 -0.128906 -5.746094 -0.105469 -4.6875 C -0.15625 -3.679688 -0.0898438 -2.625 0.078125 -1.554688 Z M 0.078125 -1.554688" transform="translate(88.642 102.208)"/></g></g></g></svg>