<?xml version="1.0" standalone="no"?>
<!DOCTYPE svg PUBLIC "-//W3C//DTD SVG 20010904//EN"
 "http://www.w3.org/TR/2001/REC-SVG-20010904/DTD/svg10.dtd">
<svg version="1.0" xmlns="http://www.w3.org/2000/svg"
 width="200.000000pt" height="200.000000pt" viewBox="0 0 200.000000 200.000000"
 preserveAspectRatio="xMidYMid meet">

<g transform="translate(0.000000,200.000000) scale(0.100000,-0.100000)"
fill="#000000" stroke="none">
<path d="M1080 1090 c0 -22 5 -40 11 -40 8 0 9 -28 4 -93 -6 -85 -5 -94 10
-94 16 0 17 9 11 94 -5 63 -4 93 3 93 6 0 11 18 11 40 0 36 -2 40 -25 40 -22
0 -25 -4 -25 -40z m40 0 c0 -11 -7 -20 -15 -20 -8 0 -15 9 -15 20 0 11 7 20
15 20 8 0 15 -9 15 -20z"/>
<path d="M1213 990 c-1 -72 2 -130 6 -130 5 0 12 52 15 116 4 64 10 123 13
130 3 9 -2 14 -13 14 -17 0 -19 -11 -21 -130z"/>
<path d="M1033 988 c-2 -101 1 -125 12 -125 11 0 14 24 12 123 -1 68 -5 115
-8 106 -6 -15 -7 -15 -10 2 -2 10 -5 -38 -6 -106z"/>
<path d="M1162 983 c-1 -77 2 -123 8 -123 11 0 11 69 0 175 -6 64 -7 60 -8
-52z"/>
<path d="M858 994 c2 -19 7 -34 11 -34 9 0 1 59 -8 64 -4 3 -5 -11 -3 -30z"/>
<path d="M897 1024 c-4 -4 -7 -17 -7 -30 0 -21 18 -35 43 -33 7 0 2 4 -10 9
-27 11 -32 50 -7 50 10 0 14 -6 10 -15 -3 -9 0 -15 10 -15 23 0 13 34 -12 38
-11 2 -23 0 -27 -4z"/>
</g>
</svg>
